<?xml version="1.0" encoding="UTF-8" standalone="no"?>
<!-- Created with Inkscape (http://www.inkscape.org/) -->
<svg xmlns:svg="http://www.w3.org/2000/svg" xmlns="http://www.w3.org/2000/svg" version="1.0" width="334" height="127.26" id="svg9128">
  <defs id="defs9130"/>
  <g id="g3176">
    <path d="M 57.396916,5.0118544 C 56.897842,5.0366526 56.47509,5.0987638 56.006515,5.3117449 C 55.469644,5.5559538 55.117365,6.0831198 55.097138,6.6725801 C 55.076912,7.2620361 55.392226,7.8121115 55.911096,8.0925473 C 55.943506,8.1101699 56.625345,8.6333141 57.246971,9.3875288 C 57.868597,10.141743 58.529922,11.15683 58.991788,12.304645 C 59.800053,14.313322 59.97867,16.632634 58.555584,19.188494 C 58.189186,19.097524 57.816693,19.012172 57.465073,19.011286 C 56.549446,19.008979 55.705779,19.252097 54.956899,19.692855 L 54.943267,19.679224 L 25.554003,35.818783 C 25.506892,35.848131 25.461388,35.879983 25.417689,35.914203 C 25.162705,36.093042 25.093048,36.073792 25.022379,36.064148 C 24.951709,36.054504 24.802911,36.004488 24.599806,35.805152 C 24.193595,35.406474 23.721268,34.43 23.631977,33.446922 C 23.384641,30.723786 23.806289,26.66063 24.790645,23.100701 C 24.991565,22.372768 24.639928,21.605786 23.957264,21.282947 C 23.274595,20.960107 22.458653,21.174934 22.023474,21.792089 C 22.023474,21.792089 14.712642,32.073293 10.504954,43.206993 C 8.4523242,48.638326 7.5781071,54.417719 7.2197906,58.937611 C 7.0406323,61.197555 6.9895694,63.143336 7.0016884,64.567373 C 7.0077477,65.279389 7.0285625,65.858581 7.056214,66.298559 C 7.0700395,66.518549 7.0915225,66.708115 7.1107395,66.871077 C 7.1299565,67.034038 7.0387344,67.0075 7.2606847,67.525383 C 7.5173556,68.12711 8.1234715,68.503571 8.7766273,68.466948 C 9.4297848,68.43032 9.9900107,67.988453 10.177801,67.361807 C 11.251073,63.867627 12.916396,59.429724 14.717052,55.938706 C 15.617378,54.1932 16.551671,52.683026 17.402435,51.685715 C 18.141291,50.819587 18.722925,50.51766 18.997307,50.431627 L 18.356632,55.37982 C 18.351101,55.411479 18.346555,55.4433 18.343,55.475239 C 18.16492,57.883384 19.476573,59.891873 21.287379,60.641534 C 23.024192,61.36056 25.080197,61.036377 26.726302,59.81002 L 26.726302,59.823651 L 34.714293,55.2844 L 38.790077,83.378683 C 39.015791,85.571993 40.69882,87.062729 42.579602,87.590781 C 44.4253,88.108983 46.754112,87.492456 47.950367,85.491548 L 47.963998,85.505179 L 48.032155,85.396128 L 56.292774,73.223302 C 56.478135,72.961352 56.559958,72.665833 56.633559,72.378156 C 60.562975,72.756581 64.726239,71.554895 68.642809,68.670419 L 63.517408,82.451749 C 61.864124,86.599716 62.798818,90.945262 65.003229,93.697641 C 65.016459,93.716114 65.030095,93.734291 65.044123,93.752167 L 74.054468,104.05749 L 59.714252,113.27231 C 59.131343,113.6448 58.864953,114.35783 59.060831,115.02128 C 59.256704,115.68473 59.867652,116.13873 60.559398,116.1349 L 232.80557,116.1349 C 233.41023,116.13147 233.95797,115.77751 234.2095,115.22764 C 234.46104,114.67777 234.37067,114.03191 233.97787,113.5722 L 226.46698,104.83448 L 234.59128,99.518242 C 233.74468,102.93642 233.59339,106.99238 234.78212,110.90045 C 236.59324,116.85468 241.82872,122.13847 251.48057,122.25539 C 274.38215,122.53355 297.52218,102.07152 312.42649,81.988282 C 315.35415,78.039394 318.50065,72.483621 320.38722,66.721131 C 322.27378,60.958641 322.96346,54.902015 320.34632,50.090843 C 317.45672,44.778781 313.20788,42.777009 310.05463,42.007432 C 312.78573,40.200721 316.30561,38.325793 320.45537,35.655206 C 322.96968,34.037124 324.9194,32.119238 326.03061,29.834605 C 327.14182,27.549972 327.32445,24.903211 326.43955,22.241924 C 326.32242,21.889667 326.11764,20.79712 325.77161,19.63833 C 325.42559,18.47954 324.92616,17.166286 323.90411,16.080539 C 322.8459,14.956366 321.94496,14.157772 320.987,13.613258 C 320.02903,13.068744 318.99252,12.827671 318.01535,12.8499 C 316.06103,12.894358 314.40952,13.644599 311.49955,14.199407 C 307.29348,15.001325 300.27654,15.96552 294.31038,16.653057 C 291.3273,16.996825 288.59832,17.269775 286.60864,17.430046 C 285.61381,17.510181 284.8045,17.564549 284.26405,17.579991 C 284.19155,17.582063 284.17638,17.579245 284.1141,17.579991 C 283.4422,16.708695 281.93617,14.886848 279.35675,14.962765 C 278.78822,14.979502 278.12145,15.098167 277.1621,15.289918 C 276.20274,15.481669 275.05672,15.756155 273.93146,16.121433 C 272.02763,16.739443 269.99124,17.530307 268.27443,18.861341 C 266.55763,20.192375 265.17916,22.157196 264.89385,24.722836 C 264.73553,26.146494 264.69494,27.324743 264.64848,28.512361 C 264.52611,26.32556 263.90751,24.265197 262.83551,22.487289 C 260.68703,18.924045 256.69817,16.557637 251.78046,16.557637 L 222.50024,16.557637 C 222.4957,16.557615 222.49116,16.557615 222.48661,16.557637 C 219.66011,16.588782 217.49692,17.532013 215.95718,18.588713 C 215.35867,18.147148 214.70094,17.768366 213.98063,17.457308 C 212.7531,16.92722 211.43533,16.557637 210.15021,16.557637 L 202.77563,16.557637 C 195.77463,16.557637 191.26743,20.089662 188.61262,23.059807 C 188.11664,22.121432 187.43916,21.16665 186.55428,20.238111 C 184.65706,18.24727 181.74309,16.557637 177.95288,16.557637 L 169.71952,16.557637 C 164.04425,16.557637 159.52087,20.366259 157.42401,25.090884 C 157.09021,24.94004 156.87044,24.799338 156.44256,24.654679 C 154.6097,24.035034 151.78795,23.455117 147.65031,23.455117 C 135.33108,23.455117 125.27665,30.041772 118.76541,36.227725 L 120.4557,31.538528 C 120.47141,31.493739 120.48505,31.448252 120.49659,31.402215 C 121.74736,26.734296 120.80523,22.873112 118.57457,20.319899 C 116.34391,17.766686 113.01303,16.557637 109.70054,16.557637 L 99.96773,16.557637 C 93.712045,16.557637 87.073173,19.361846 83.814539,26.999277 C 83.804917,27.021777 83.795826,27.044503 83.787277,27.067434 L 83.637331,27.462744 C 83.248957,25.891188 82.489447,23.781608 81.047368,21.069625 C 79.302337,17.787903 76.770228,14.087499 73.304742,11.336817 C 70.288852,8.942993 67.065472,7.3433708 64.239871,6.3477301 C 61.414271,5.3520894 59.05619,4.9294162 57.396916,5.0118544 z M 70.755673,24.027636 C 71.243424,23.918528 72.249459,24.066248 73.413793,24.545628 C 74.578127,25.025008 75.875538,25.777487 77.067004,26.576704 C 79.449936,28.17514 81.374522,29.902762 81.374522,29.902762 C 81.70923,30.201056 82.156488,30.340201 82.601346,30.284441 L 78.716402,40.753344 C 77.718235,38.098134 76.324144,36.038469 74.654249,34.619221 C 72.52121,32.806347 70.094038,31.974109 67.86582,31.661211 C 67.863556,30.80567 67.906814,29.678789 68.111185,28.444204 C 68.299001,27.309641 68.633317,26.190795 69.092644,25.404405 C 69.551972,24.618016 70.033424,24.189201 70.755673,24.027636 z M 61.350018,29.834605 C 61.612805,29.932367 61.873254,30.072638 62.167901,30.325335 C 62.548241,30.651524 62.943782,31.2071 63.353831,31.892944 C 63.068877,31.952085 62.938216,31.939422 62.617737,32.015627 C 62.013236,32.159365 61.412988,32.303072 60.818394,32.506357 L 61.350018,29.834605 z M 264.55306,30.039076 C 264.53768,31.494079 264.58964,32.786627 264.66212,33.937652 C 264.84154,36.787427 265.54537,38.929046 266.72045,40.467085 C 267.89554,42.005124 269.53153,42.841145 271.13702,43.166099 C 271.60501,43.260821 272.06201,43.259037 272.52742,43.288782 L 254.016,55.461608 C 254.17101,53.711351 254.01235,52.011262 253.59343,50.499784 C 253.17046,48.973693 252.5325,47.65058 251.75319,46.546683 C 253.22463,45.945484 254.83173,45.043893 256.49692,43.820406 C 259.24294,41.802778 261.98515,38.966808 263.46255,35.328053 C 264.18375,33.551786 264.46926,31.775073 264.55306,30.039076 z M 64.185346,44.570132 C 64.799011,44.570132 65.168306,44.871388 65.384908,45.388015 C 65.601509,45.904642 65.610892,46.608401 65.030492,47.364566 C 64.279706,48.342715 61.915238,50.120627 60.068668,50.090843 C 59.318833,50.078747 59.01157,49.830045 58.882737,49.627375 C 58.753904,49.424706 58.648701,49.073963 59.019051,48.305131 C 59.410968,47.491536 60.26742,46.479363 61.26823,45.742431 C 62.269039,45.005499 63.395842,44.570132 64.185346,44.570132 z M 148.98619,84.82361 C 148.9315,86.337413 148.98851,87.779404 149.31334,89.103865 C 149.58315,90.203981 150.0169,91.24144 150.60832,92.198189 L 123.2365,92.198189 C 123.90031,91.602055 124.49791,90.964232 125.04948,90.303426 C 125.98148,90.435012 127.74422,90.661581 129.73867,90.657842 C 136.19142,90.64589 143.539,88.125537 148.98619,84.82361 z M 187.27675,88.626766 C 187.35964,89.888334 187.68261,91.092354 188.24458,92.198189 L 184.68678,92.198189 C 185.63059,91.189772 186.48615,89.999183 187.27675,88.626766 z " style="fill: rgb(255, 242, 21); fill-opacity: 1; fill-rule: evenodd; stroke: none; stroke-width: 1px; stroke-linecap: butt; stroke-linejoin: miter; stroke-opacity: 1;" id="path6165"/>
    <path d="M 56.650335,6.7231188 C 58.278411,7.6082209 64.255789,14.342879 59.194161,21.208037 C 58.284435,20.308527 56.653031,20.457064 55.692993,21.042362 L 26.303729,37.176678 C 24.245804,38.620061 22.328128,36.215354 22.08955,33.588649 C 21.816936,30.587267 22.263386,26.421494 23.296436,22.68547 C 23.296436,22.68547 16.076138,32.874906 11.967709,43.745959 C 8.0183035,54.196227 8.4811019,66.419924 8.6919801,66.911971 C 10.884897,59.772637 15.406093,48.932428 19.106358,48.795861 C 20.357697,48.74968 20.687598,49.475332 20.687598,49.475332 L 19.900123,55.581145 C 19.622963,59.329122 23.423066,60.526599 25.956654,58.469948 L 34.850607,53.430532 C 35.368377,53.221442 36.051211,52.418346 36.213745,54.79367 L 40.336713,83.156385 C 40.63516,86.056485 45.023205,87.603954 46.688938,84.632771 L 55.011424,72.350893 C 55.4841,71.682925 55.060571,71.054983 54.946412,70.533723 C 60.504593,71.881476 66.893149,69.69498 72.450161,62.889666 L 64.970723,82.992808 C 63.538861,86.585247 64.403199,90.465865 66.216422,92.729813 L 76.412698,104.39828 L 60.559398,114.58092 L 232.80557,114.58092 L 224.14335,104.50733 L 237.72755,95.614423 C 233.74127,101.9291 233.24293,120.47611 251.4942,120.69722 C 273.4369,120.96373 296.43077,100.92539 311.1724,81.061348 C 316.83032,73.42984 323.56201,59.244354 318.98318,50.826937 C 314.30998,42.23602 306.06902,43.073825 306.06902,43.073825 C 309.1946,40.221655 313.86922,38.037781 319.60813,34.344495 C 324.30702,31.320518 326.52086,27.384825 324.97322,22.730395 C 324.583,21.556831 324.25141,18.716953 322.76956,17.14274 C 318.75733,12.880439 317.85195,14.56557 311.78686,15.721926 C 303.20034,17.359014 283.75248,19.548908 283.31614,19.067905 C 282.59794,18.276208 281.61725,16.446357 279.40393,16.5115 C 278.80586,16.529105 276.50858,16.916768 274.4138,17.596767 C 270.75389,18.784831 266.91268,20.62874 266.43839,24.893754 C 266.0166,28.686686 266.06839,31.515113 266.21505,33.844331 C 266.88085,44.41883 275.17862,41.74632 279.11977,40.809968 L 251.59591,58.920835 C 254.01187,53.391513 251.42366,47.48792 248.88851,45.782278 C 251.86081,45.397293 259.36067,41.285806 262.01763,34.741904 C 265.41895,26.364674 260.6494,18.106372 251.77731,18.106372 L 222.49605,18.106372 C 219.33586,18.141194 217.17737,19.429942 215.87854,20.587284 C 214.91115,19.329497 212.05781,18.106372 210.1523,18.106372 L 202.77638,18.106372 C 194.47627,18.106372 189.99617,23.441787 188.0299,26.249551 C 187.86753,23.938571 184.63559,18.106372 177.95896,18.106372 L 169.71698,18.106372 C 164.15939,18.106372 159.75785,22.343438 158.25382,27.251425 C 158.25382,27.251425 155.63044,25.003852 147.64507,25.003852 C 131.93799,25.003852 119.80802,36.415079 114.68124,43.014056 L 118.994,31.013194 C 121.29494,22.425937 115.56893,18.106372 109.70473,18.106372 L 99.961435,18.106372 C 94.134828,18.106372 88.265394,20.519467 85.241638,27.6064 L 78.443774,45.960533 C 77.15161,35.868672 70.981169,33.252048 66.353783,33.047416 C 66.353783,33.047416 65.600912,23.591431 70.414889,22.514552 C 74.477438,21.605764 82.410507,28.744095 82.410507,28.744095 C 82.118315,26.698768 78.774321,17.658569 72.336914,12.548963 C 65.807882,7.3666292 58.124244,6.0531613 56.650335,6.7231188 z M 60.101174,28.185208 C 62.330252,27.883516 64.211736,29.423273 65.685845,33.047416 C 65.007739,33.080554 61.095083,33.705644 59.860616,34.739806 C 59.207108,35.287277 58.813512,34.595858 58.880639,34.26166 L 60.101174,28.185208 z M 64.185346,43.02035 C 66.655047,43.02035 68.037505,45.985305 66.252073,48.311421 C 65.217497,49.659301 62.703281,51.693946 60.047695,51.65111 C 57.76875,51.614351 56.537092,49.86645 57.613972,47.630903 C 58.690851,45.395356 61.636949,43.02035 64.185346,43.02035 z M 48.550148,46.069584 C 48.108679,46.952518 46.912493,49.523149 46.628123,51.167722 C 46.174422,50.421267 45.873062,48.594745 45.800805,47.570083 C 46.721771,46.834386 47.742839,46.351477 48.550148,46.069584 z M 191.25198,78.116969 C 189.02193,83.654587 186.82995,90.772102 191.58426,93.752167 L 180.36563,93.752167 C 182.68846,92.284143 184.54532,90.426436 186.16582,87.461189 L 191.25198,78.116969 z M 150.81279,81.742917 C 149.97567,87.23308 150.6226,90.888494 153.9974,93.752167 L 118.49621,93.752167 C 120.58246,92.546821 123.01903,90.587387 124.42243,88.654029 C 124.42243,88.654029 127.30528,89.108432 129.74216,89.103865 C 136.86016,89.090678 145.63747,85.662226 150.81279,81.742917 z " style="fill: rgb(0, 0, 0); fill-rule: evenodd; stroke: none; stroke-width: 1px; stroke-linecap: butt; stroke-linejoin: miter; stroke-opacity: 1;" id="path6146"/>
    <path d="M 98.163916,19.766526 L 108.97425,19.766526 C 113.38607,19.766526 117.53664,22.878172 115.70068,29.375714 L 102.72828,64.449244 C 102.29899,65.700915 101.71633,67.247102 104.65012,67.171848 L 107.69303,67.011696 C 107.69303,64.462405 108.23152,58.143222 110.73594,52.117456 C 115.84123,39.833834 131.19306,26.492958 146.93054,26.492958 C 153.20531,26.492958 159.26233,29.856171 159.26233,29.856171 C 159.71032,25.095551 162.19744,19.766526 169.67228,19.766526 L 176.71901,19.766526 C 181.12897,19.766526 185.24513,22.537592 184.08605,29.696023 L 181.36346,43.148882 L 189.37111,27.293724 C 190.95084,23.098599 195.52551,19.766526 202.34351,19.766526 L 208.74964,19.766526 C 211.82878,19.766526 214.07714,21.030921 214.51515,23.289896 C 215.64339,21.841144 218.20851,19.481113 222.68296,19.766526 L 250.46952,19.766526 C 259.16057,19.766526 261.11829,28.573421 257.99672,34.020156 C 255.05423,39.15442 249.76311,42.508268 244.14347,42.508268 L 234.69444,42.508268 C 233.91619,42.508268 233.28302,42.627435 232.93275,43.309035 L 232.53237,44.189875 C 232.41225,44.697032 232.85269,44.830485 233.49329,44.830489 L 241.30075,44.830489 C 246.53893,44.750411 251.88878,51.175242 246.98619,59.004036 C 243.97251,63.816504 239.10969,66.691387 235.29501,66.691387 L 225.40556,66.691387 C 224.5482,66.691387 224.34356,67.069497 224.00422,67.692345 L 223.40364,69.093686 C 223.16958,69.559037 223.53316,70.134679 224.36456,70.134679 L 234.73448,70.134679 L 230.05,92.716269 L 196.73815,92.716269 C 190.85952,92.716269 189.11016,87.215933 191.13279,82.22624 L 204.50558,46.111713 L 181.44353,87.351139 C 179.63365,90.524163 174.43633,92.716269 170.39297,92.716269 L 161.02401,92.716269 C 154.95169,92.716269 151.72261,89.623777 152.21559,83.987921 L 153.57689,73.898276 C 148.95036,78.721845 140.4007,83.14004 136.53961,84.259654 C 130.8949,85.896481 123.78311,85.101987 122.42711,84.388304 C 117.97011,89.948003 113.29779,92.708535 108.41371,92.716269 L 72.699574,92.716269 C 67.884812,92.716269 64.053381,89.16448 67.174292,81.345395 L 86.472738,28.174564 C 87.951811,24.511678 91.551975,19.766526 98.163916,19.766526 z " style="fill: rgb(255, 255, 255); fill-rule: evenodd; stroke: none; stroke-width: 1px; stroke-linecap: butt; stroke-linejoin: miter; stroke-opacity: 1;" id="path6167"/>
    <path d="M 147.3621,28.465377 C 133.47457,28.465381 117.61766,39.758061 112.07045,54.923894 C 106.52325,70.089736 112.97297,83.099961 127.95101,83.099966 C 141.83854,83.09997 157.43477,71.371008 163.09272,56.246138 C 168.56203,41.625556 161.01595,28.465377 147.3621,28.465377 z M 133.09004,43.678002 C 137.90447,43.678002 138.22861,48.079591 138.23102,49.278556 C 139.04358,47.690183 143.11309,43.678002 146.92006,43.678002 C 148.51215,43.678002 153.27473,43.697937 152.05325,50.507326 C 150.65126,58.361947 134.443,69.069829 130.30535,72.037122 C 126.83626,66.83621 122.55883,60.839706 122.55883,54.365007 C 122.55883,49.177033 128.02276,43.678006 133.09004,43.678002 z " style="fill: rgb(238, 51, 56); fill-opacity: 1; stroke: none; stroke-width: 1.4585; stroke-miterlimit: 4; stroke-dasharray: none; stroke-opacity: 1;" id="path2224"/>
    <path d="M 25.738602,40.20367 C 33.23209,35.682587 55.865499,23.23896 55.931404,23.255436 C 56.376183,22.966071 57.523011,23.165948 57.331197,24.519486 C 56.690792,29.03851 56.128538,33.745046 55.063503,37.835268 C 54.925553,38.36506 54.666052,38.775183 54.429283,38.95575 L 43.09635,45.344926 C 42.16918,45.861484 42.453468,46.604789 42.508154,47.068797 C 43.670225,56.928772 47.219473,63.659077 51.280184,69.928101 C 51.459517,70.20496 51.851251,71.275475 51.389335,71.98155 C 51.389335,71.98155 46.182825,80.005066 44.203468,82.779822 C 43.708633,83.473505 42.509732,83.218203 42.310732,82.079928 C 40.855844,73.758001 39.037483,57.962546 37.612875,49.674511 C 37.473348,48.862779 36.929198,48.845527 36.446763,49.078094 C 33.066476,50.707622 27.459397,54.220039 23.920991,55.901219 C 22.700881,56.480921 21.934702,56.213044 22.025487,55.311475 C 22.363962,51.950159 23.383105,44.037753 24.797042,41.222298 C 24.954128,40.909505 25.303628,40.466103 25.738602,40.20367 z " style="fill: rgb(244, 157, 195); fill-opacity: 1; fill-rule: evenodd; stroke: none; stroke-width: 1px; stroke-linecap: butt; stroke-linejoin: miter; stroke-opacity: 1;" id="path2226"/>
    <path d="M 65.91653,35.619908 C 57.311654,35.659865 48.472366,45.36042 47.934786,55.237416 C 47.556105,62.078111 51.043276,68.06013 57.88375,67.869814 C 64.412941,67.689243 70.295583,62.109191 73.353423,54.606477 C 77.737804,43.848968 72.002832,35.591464 65.91653,35.619908 z M 63.659562,40.046213 C 67.031683,40.083853 70.088931,43.508654 69.075116,47.292264 C 68.061302,51.075874 64.066092,54.070958 59.447464,54.070958 C 55.37409,54.070958 52.854731,50.566728 54.26559,46.941744 C 56.079812,42.280382 60.209338,40.007264 63.659562,40.046213 z " style="fill: rgb(244, 157, 195); fill-opacity: 1; fill-rule: evenodd; stroke: none; stroke-width: 1px; stroke-linecap: butt; stroke-linejoin: miter; stroke-opacity: 1;" id="path2228"/>
    <path d="M 98.43712,22.440554 L 108.87487,22.518447 C 111.43978,22.518447 113.96458,24.062562 113.00322,28.048898 L 99.917096,63.256814 C 98.420444,67.382098 101.26177,69.799878 104.27914,69.799878 L 108.09824,69.799878 C 109.09219,77.019142 113.56766,81.725486 119.2562,83.991759 C 116.48593,87.885127 111.88177,89.896434 107.55067,89.896434 L 72.109073,89.896434 C 70.045325,89.896434 67.914935,87.940983 69.071222,84.132309 L 89.479346,28.282577 C 90.490546,25.437731 94.132586,22.440554 98.43712,22.440554 z " style="fill: rgb(0, 187, 242); fill-opacity: 1; fill-rule: evenodd; stroke: none; stroke-width: 1px; stroke-linecap: butt; stroke-linejoin: miter; stroke-opacity: 1;" id="path3218"/>
    <path d="M 169.4761,22.440558 L 177.34336,22.440558 C 179.71112,22.440558 182.22692,25.031817 181.39383,28.905725 C 181.39383,28.905725 176.39426,54.523088 176.01917,56.168494 C 175.63985,57.83243 175.56908,58.257136 176.33852,58.257136 C 177.10796,58.257136 177.29383,58.070803 177.96651,56.557963 L 192.06526,28.204684 C 193.32246,25.626664 195.92574,22.440558 200.47777,22.440558 L 209.20185,22.440558 C 211.07654,22.440558 213.49094,23.813463 211.69445,27.815219 L 180.45911,83.431263 C 177.40034,88.832877 173.81387,89.818541 171.34555,89.818541 L 160.05098,89.818541 C 157.35897,89.818541 154.69365,88.223142 155.22157,83.898625 L 156.70155,71.04618 C 158.3347,69.179722 165.85738,61.967896 167.37298,47.522305 C 168.20275,39.570868 162.93255,32.981583 161.84253,31.709895 L 162.07621,29.450981 C 162.35783,26.99358 164.21034,22.440558 169.4761,22.440558 z " style="fill: rgb(0, 178, 175); fill-opacity: 1; fill-rule: evenodd; stroke: none; stroke-width: 1px; stroke-linecap: butt; stroke-linejoin: miter; stroke-opacity: 1;" id="path4193"/>
    <path d="M 221.74273,22.596344 L 249.94022,22.596344 C 257.30303,22.596344 257.62003,27.972959 255.94543,32.101349 C 254.30836,36.137199 249.18566,39.421368 245.42239,39.421368 L 235.21833,39.421368 C 232.26397,39.421368 231.09373,40.541606 230.31102,42.14764 L 229.3763,44.873922 C 228.50845,47.149582 229.49553,47.678087 231.01207,47.522301 L 240.28141,47.522301 C 246.31946,47.522301 247.26642,53.077611 244.81106,57.604391 C 242.78772,61.33468 238.35401,64.191539 233.42677,64.191539 L 225.17005,64.191539 C 223.49168,64.09929 222.0719,64.752903 221.43115,66.528346 L 220.34064,69.955669 C 219.68917,71.697651 220.58585,72.604048 222.67745,72.604048 L 231.1346,72.604048 C 241.78876,72.604048 240.67317,89.896434 226.8124,89.896434 L 197.12834,89.896434 C 194.28177,89.896434 192.04852,88.017759 193.85681,82.730221 L 213.64179,29.295195 C 215.07068,25.98782 216.275,22.596344 221.74273,22.596344 z " style="fill: rgb(245, 135, 53); fill-opacity: 1; fill-rule: evenodd; stroke: none; stroke-width: 1px; stroke-linecap: butt; stroke-linejoin: miter; stroke-opacity: 1;" id="path4195"/>
    <path d="M 242.7021,65.810546 C 242.7021,65.810546 233.92689,70.988466 231.65153,72.376821 C 226.92702,75.259578 225.08169,79.543959 225.24541,84.388309 C 225.39475,88.807333 229.23119,93.997209 230.37031,95.278716 L 242.06148,89.032746 L 242.7021,65.810546 z " style="fill: rgb(0, 0, 0); fill-rule: evenodd; stroke: none; stroke-width: 1px; stroke-linecap: butt; stroke-linejoin: miter; stroke-opacity: 1;" id="path7139"/>
    <path d="M 278.44156,19.438844 C 278.69612,21.004949 280.6959,22.856339 282.58176,22.575267 C 283.76357,22.399132 311.33179,19.24838 312.20506,18.998213 C 313.36943,18.664647 314.89878,17.444078 316.61138,17.566158 C 318.44609,17.696941 319.05517,19.254888 319.80597,20.981062 C 321.08977,23.932669 320.90756,26.709288 318.92471,28.251506 C 316.94186,29.79372 288.30072,48.851093 288.30072,48.851093 C 287.99701,49.104187 287.72282,49.452326 287.97363,49.672435 C 288.32746,49.982956 288.96597,49.944134 289.84294,49.677277 C 291.35185,49.218124 299.5371,46.311097 304.60414,46.262373 C 310.38745,46.207298 315.55605,49.50457 315.50981,56.672327 C 315.39964,73.636692 289.57206,102.57879 267.15034,111.75144 C 241.13166,122.39559 238.99396,108.4449 239.17016,103.1591 C 239.50063,93.244852 254.90979,75.967563 265.77336,69.560838 C 276.51379,63.226742 284.4832,59.039172 292.81721,62.400554 C 300.54914,65.5191 296.67533,76.393595 287.86009,85.58886 C 280.02799,93.758596 267.2605,101.89228 261.25687,97.871501 C 256.11093,94.425134 259.98881,86.318534 266.04876,80.246186 C 271.41694,74.867024 276.08792,72.983167 280.31425,72.480031 C 283.78424,72.066937 284.8032,75.592 283.39868,78.979366 C 281.85671,82.698226 277.2849,86.277343 274.58602,87.461546 C 275.47024,85.533187 274.70577,83.349112 272.5481,83.771249 C 270.0903,84.252103 268.16758,86.228632 267.15034,87.516626 C 266.39854,88.468537 265.63566,89.279157 263.90067,90.876455 C 265.13996,91.647563 265.9386,92.253429 266.70971,92.80422 C 267.48082,93.355015 271.05004,94.791231 272.98873,93.299936 C 274.42079,92.19835 275.24697,89.995182 274.25555,89.00376 C 276.01808,88.287735 277.60448,87.732416 281.14044,84.32204 C 284.25437,81.318704 288.2971,74.155439 284.89745,71.749524 C 278.51277,67.231119 265.90576,78.088279 261.53228,83.330617 C 256.46859,90.490737 254.98117,96.88249 259.32911,99.634032 C 264.60592,102.97339 276.43664,98.529659 286.48311,88.838525 C 295.04792,80.576659 301.16169,67.853387 301.18924,63.612294 C 301.24259,55.181717 294.96839,53.76072 283.78424,58.214541 C 269.42654,63.93215 263.8456,68.238939 237.29684,89.000689 C 236.03812,90.168691 233.64624,92.140138 232.67082,91.041693 L 229.69655,86.084571 C 228.02609,82.702112 228.82701,78.113029 233.99272,74.51796 L 301.46463,29.73864 C 302.08455,29.347116 302.18833,28.856918 301.83145,28.514136 C 301.4498,28.147554 301.04836,28.362825 300.25289,28.637058 C 299.82349,28.785093 274.86142,36.458289 274.86142,36.458289 C 272.46334,36.979165 270.65475,37.017354 270.1797,34.20005 C 269.74362,31.613913 269.76619,27.637112 270.12462,24.506125 C 270.24049,23.493939 270.49612,22.886041 271.77699,22.027564 C 273.76983,20.691902 278.44156,19.438844 278.44156,19.438844 z " style="fill: rgb(255, 242, 21); fill-opacity: 1; fill-rule: evenodd; stroke: none; stroke-width: 1px; stroke-linecap: butt; stroke-linejoin: miter; stroke-opacity: 1;" id="path5170"/>
    <path d="M 124.49059,96.628389 C 124.42985,96.629593 124.37229,96.650491 124.31338,96.669283 C 123.4198,96.954351 121.16453,97.309954 121.16453,97.309958 C 121.47019,97.467642 121.92439,98.143662 121.8461,98.700359 C 121.62212,100.29318 121.58966,101.93815 121.28722,103.11693 C 121.28722,103.11693 115.33101,106.2194 115.5893,109.31921 C 115.76032,111.37168 118.95766,111.54644 121.76431,111.47297 C 124.43973,111.40219 126.7534,110.62782 126.7534,110.62782 L 128.64816,107.95607 C 127.85231,108.29424 127.18894,108.79216 125.99004,108.9239 C 123.49267,109.19831 120.83337,109.30747 118.65636,109.03295 C 118.28431,108.98603 117.26596,109.01258 117.26596,107.92881 C 117.26596,105.56009 124.51326,102.88411 128.32101,102.16273 C 129.51964,101.93565 130.1532,101.73264 130.54293,101.84921 C 130.82604,101.70765 130.67523,100.93831 130.31119,100.59512 C 129.87817,100.18691 129.58973,100.28383 129.12526,100.43155 L 124.4497,101.84921 C 124.4497,101.84921 124.70481,98.933868 125.07674,97.827951 C 125.33943,97.04687 124.91578,96.619966 124.49059,96.628389 z M 138.64596,96.889095 C 139.29143,97.249443 141.19643,98.48709 141.73435,99.025009 C 142.27227,99.562927 143.30715,100.42631 143.90168,100.19981 C 144.49622,99.973321 144.98171,99.377737 145.26482,98.754885 C 145.54793,98.132037 144.83094,97.59107 143.79263,97.200907 C 142.27135,96.629257 140.26273,96.811939 138.64596,96.889095 z M 153.41639,97.282695 C 152.56233,97.282695 153.20127,98.216674 153.8872,98.400469 L 154.61595,97.92337 C 154.61595,97.92337 159.65791,97.92337 160.21845,97.92337 C 160.77898,97.92337 161.01927,98.39711 160.85912,98.877567 C 160.69897,99.358029 157.16922,101.60909 155.3856,102.45843 C 156.12488,102.95128 157.04325,103.9001 156.66695,105.45838 C 156.29101,107.01516 155.25673,110.48803 152.55551,110.51038 C 151.35284,110.52023 150.9145,110.07732 150.51815,109.65265 C 150.39369,110.21269 151.02567,111.77286 153.51705,111.77286 C 156.20797,111.77286 159.05015,109.54963 159.26425,106.48388 C 159.44869,103.84294 156.78334,102.4081 156.78334,102.4081 C 159.84289,101.846 163.2902,100.30023 164.30786,98.877567 C 164.77794,98.220421 164.35358,97.282695 163.27188,97.282695 L 153.41639,97.282695 z M 171.7506,97.282695 C 171.12373,97.286721 171.98391,98.11735 172.30949,98.400469 C 172.60443,98.195666 172.84906,97.948932 173.3591,97.92337 C 173.3591,97.92337 177.59852,97.92337 178.23914,97.92337 C 178.57533,97.92337 178.72253,97.905359 178.86459,98.117259 C 178.91762,98.196373 178.81566,98.366222 178.51124,98.518431 C 177.87063,98.838736 168.83118,104.23392 167.45095,104.81403 C 167.15266,104.93941 166.91201,105.26788 167.04535,105.46142 C 167.37161,105.93497 167.77805,106.36661 168.14457,106.57353 C 168.5616,106.80897 169.18551,106.41673 169.27474,106.36445 C 169.9492,105.96934 172.52317,104.4942 172.99525,104.3081 C 175.41328,103.35488 179.84831,103.03333 179.45129,106.25844 C 179.268,107.74728 177.24917,109.90783 175.45624,110.50409 C 173.03605,111.30895 170.94503,110.78776 170.96312,109.34437 C 170.97365,108.47619 172.06366,107.11302 173.0157,107.16965 C 174.13563,107.23625 174.13835,108.47925 173.49437,108.73306 C 172.77641,109.01602 172.88089,110.24586 174.14553,110.00812 C 175.41763,109.76897 175.9517,108.83952 175.69217,108.08504 C 174.72723,105.27988 169.91546,106.11181 168.73702,108.1123 C 168.09704,109.19871 167.16947,111.79488 173.2553,111.79488 C 179.34111,111.79488 181.63459,108.70706 182.38518,106.66528 C 183.30488,104.16347 179.99747,102.75307 178.71624,102.75308 C 177.43501,102.75308 176.55095,102.79712 175.75823,102.96698 L 182.32121,98.916363 C 183.32013,98.351775 183.17843,97.282695 182.02971,97.282695 L 171.7506,97.282695 z M 136.62252,99.381928 C 135.68825,99.410238 133.90987,100.3225 133.90988,100.32249 C 133.90988,100.32249 134.4824,100.49026 134.4824,100.74507 C 134.4824,100.99987 132.0114,106.06375 131.53802,106.94735 C 131.25913,107.4679 134.12455,106.90731 134.12455,106.90731 C 134.12455,106.90731 137.16438,104.44463 139.85316,104.33012 C 141.78696,104.24652 143.10029,105.0388 142.61012,106.97369 C 142.09395,109.01124 138.85548,110.33251 136.11816,110.45061 C 133.05697,110.58269 131.33354,109.23741 131.33355,109.23742 C 131.33355,109.23742 133.26299,111.82396 137.22658,111.82396 C 142.7917,111.82396 145.36201,108.31976 145.81932,106.55533 C 146.53799,103.78249 143.22395,103.1847 140.71194,103.3214 C 138.56271,103.43836 135.15033,105.01169 135.15033,105.01169 C 135.15033,105.01169 137.33135,100.79855 137.6994,100.09076 C 138.06745,99.382975 137.55679,99.353619 136.62252,99.381928 z M 164.86046,100.07713 C 165.65217,100.74145 165.25513,102.0778 166.1481,102.16273 C 166.61793,102.20742 166.76047,101.35642 166.61891,100.98519 C 166.30507,100.16215 165.51162,100.04882 164.86046,100.07713 z M 162.94473,100.62134 C 163.65468,101.44763 163.11456,102.72162 164.0625,102.72162 C 164.54296,102.72162 164.7598,102.25504 164.58993,101.65732 C 164.34913,100.81003 163.48264,100.64965 162.94473,100.62134 z M 153.22765,102.8097 C 152.50696,102.8097 150.49402,103.12636 149.89949,103.60766 C 150.74029,103.68773 150.77019,104.16825 150.44988,104.72879 C 150.20822,105.1517 147.6118,109.09194 145.81008,111.21397 C 149.41892,109.14149 152.12612,107.21102 153.97527,103.60766 C 154.18209,103.20464 153.94834,102.80969 153.22765,102.8097 z M 161.73153,103.00788 C 162.33933,105.1408 161.63141,106.68594 160.94091,108.4059 C 160.39245,109.77207 161.08938,110.4915 162.0503,110.49151 C 163.01122,110.49151 164.23265,109.23591 164.3928,107.15392 C 164.54695,105.14993 162.35055,103.26899 161.73153,103.00788 z M 104.3843,103.48498 C 103.84688,103.34098 102.89943,104.34375 103.70273,104.34375 L 114.56786,104.34375 C 115.50602,104.34375 115.94283,103.48498 115.24943,103.48498 L 104.3843,103.48498 z M 185.58646,103.48498 C 184.7696,103.48498 184.29934,104.34375 184.90489,104.34375 L 195.71457,104.34375 C 196.56985,104.45427 197.40894,103.48498 196.7925,103.48498 L 185.58646,103.48498 z " style="fill: rgb(255, 242, 21); fill-opacity: 1; stroke: none; stroke-width: 0.5; stroke-miterlimit: 4; stroke-dasharray: none; stroke-opacity: 1;" id="rect7141"/>
  </g>
</svg>